<svg xmlns="http://www.w3.org/2000/svg" xmlns:xlink="http://www.w3.org/1999/xlink" zoomAndPan="magnify" preserveAspectRatio="xMidYMid meet" version="1.0" viewBox="33.58 126.56 307.82 85.89"><defs><g/></defs><g fill="#ffffff" fill-opacity="1"><g transform="translate(28.630907, 210.792061)"><g><path d="M 4.953125 -16.6875 C 4.953125 -20.8125 5.707031 -24.234375 7.21875 -26.953125 C 8.738281 -29.679688 10.734375 -31.898438 13.203125 -33.609375 C 15.679688 -35.316406 18.40625 -36.675781 21.375 -37.6875 C 24.351562 -38.707031 27.328125 -39.5625 30.296875 -40.25 C 33.273438 -40.945312 36.003906 -41.664062 38.484375 -42.40625 C 40.960938 -43.144531 42.957031 -44.09375 44.46875 -45.25 C 45.976562 -46.40625 46.734375 -47.945312 46.734375 -49.875 C 46.734375 -52.132812 45.988281 -53.953125 44.5 -55.328125 C 43.019531 -56.703125 41.175781 -57.707031 38.96875 -58.34375 C 36.769531 -58.976562 34.539062 -59.296875 32.28125 -59.296875 C 29.695312 -59.296875 27.222656 -58.976562 24.859375 -58.34375 C 22.492188 -57.707031 20.566406 -56.6875 19.078125 -55.28125 C 17.585938 -53.882812 16.84375 -52.03125 16.84375 -49.71875 C 16.84375 -48.175781 17.296875 -47.054688 18.203125 -46.359375 C 19.117188 -45.671875 19.769531 -45.519531 20.15625 -45.90625 C 20.59375 -44.695312 20.273438 -43.597656 19.203125 -42.609375 C 18.128906 -41.617188 16.90625 -41.125 15.53125 -41.125 C 13.757812 -41.125 12.320312 -41.785156 11.21875 -43.109375 C 10.125 -44.429688 9.578125 -45.972656 9.578125 -47.734375 C 9.578125 -50.484375 10.566406 -52.765625 12.546875 -54.578125 C 14.535156 -56.398438 17.25 -57.773438 20.6875 -58.703125 C 24.125 -59.640625 27.988281 -60.109375 32.28125 -60.109375 C 34.59375 -60.109375 37 -59.875 39.5 -59.40625 C 42.007812 -58.945312 44.335938 -58.257812 46.484375 -57.34375 C 48.640625 -56.4375 50.390625 -55.347656 51.734375 -54.078125 C 53.085938 -52.816406 53.765625 -51.363281 53.765625 -49.71875 C 53.765625 -48.0625 53.1875 -46.738281 52.03125 -45.75 C 50.875 -44.757812 49.300781 -43.972656 47.3125 -43.390625 C 45.332031 -42.816406 43.101562 -42.28125 40.625 -41.78125 C 38.144531 -41.289062 35.597656 -40.726562 32.984375 -40.09375 C 30.367188 -39.457031 27.820312 -38.585938 25.34375 -37.484375 C 22.875 -36.390625 20.644531 -34.957031 18.65625 -33.1875 C 16.675781 -31.425781 15.109375 -29.15625 13.953125 -26.375 C 12.796875 -23.601562 12.21875 -20.207031 12.21875 -16.1875 C 12.21875 -13.320312 12.78125 -10.742188 13.90625 -8.453125 C 15.039062 -6.171875 16.625 -4.367188 18.65625 -3.046875 C 20.695312 -1.734375 23.066406 -1.078125 25.765625 -1.078125 C 28.023438 -1.078125 30.320312 -1.679688 32.65625 -2.890625 C 35 -4.097656 37.1875 -6.023438 39.21875 -8.671875 C 41.257812 -11.316406 42.898438 -14.742188 44.140625 -18.953125 C 45.378906 -23.160156 46 -28.265625 46 -34.265625 C 46 -35.203125 45.914062 -36.066406 45.75 -36.859375 C 45.582031 -37.660156 45.195312 -38.144531 44.59375 -38.3125 C 44.59375 -38.59375 44.796875 -38.851562 45.203125 -39.09375 C 45.617188 -39.34375 46.160156 -39.46875 46.828125 -39.46875 C 48.859375 -39.46875 50.34375 -38.847656 51.28125 -37.609375 C 52.21875 -36.367188 52.835938 -34.769531 53.140625 -32.8125 C 53.441406 -30.863281 53.59375 -28.789062 53.59375 -26.59375 C 53.59375 -24.769531 53.59375 -23.238281 53.59375 -22 C 53.59375 -20.769531 53.601562 -19.585938 53.625 -18.453125 C 53.65625 -17.328125 53.671875 -16.0625 53.671875 -14.65625 C 53.671875 -13.25 53.671875 -11.445312 53.671875 -9.25 C 53.671875 -6.9375 54.039062 -5.171875 54.78125 -3.953125 C 55.53125 -2.742188 56.398438 -1.921875 57.390625 -1.484375 C 58.378906 -1.046875 59.234375 -0.828125 59.953125 -0.828125 L 59.953125 0 L 54.09375 0 C 51.882812 0 50.023438 -0.929688 48.515625 -2.796875 C 47.003906 -4.671875 46.25 -7.148438 46.25 -10.234375 L 46.25 -24.359375 C 45.53125 -20.835938 44.59375 -17.503906 43.4375 -14.359375 C 42.28125 -11.222656 40.832031 -8.441406 39.09375 -6.015625 C 37.363281 -3.597656 35.21875 -1.710938 32.65625 -0.359375 C 30.09375 0.984375 27 1.65625 23.375 1.65625 C 19.84375 1.65625 16.6875 0.867188 13.90625 -0.703125 C 11.132812 -2.273438 8.945312 -4.445312 7.34375 -7.21875 C 5.75 -10 4.953125 -13.15625 4.953125 -16.6875 Z M 4.953125 -16.6875 "/></g></g></g><g fill="#ffffff" fill-opacity="1"><g transform="translate(90.226664, 210.792061)"><g><path d="M 1.65625 -57.640625 L 1.65625 -58.46875 L 16.34375 -58.46875 C 16.34375 -58.132812 16.34375 -57.15625 16.34375 -55.53125 C 16.34375 -53.90625 16.34375 -51.894531 16.34375 -49.5 C 16.34375 -47.101562 16.359375 -44.515625 16.390625 -41.734375 C 16.421875 -38.960938 16.4375 -36.195312 16.4375 -33.4375 C 16.4375 -30.6875 16.4375 -28.179688 16.4375 -25.921875 C 16.4375 -23.671875 16.4375 -21.867188 16.4375 -20.515625 C 16.4375 -19.171875 16.4375 -18.5 16.4375 -18.5 C 16.4375 -14.8125 16.890625 -11.78125 17.796875 -9.40625 C 18.703125 -7.039062 19.882812 -5.179688 21.34375 -3.828125 C 22.800781 -2.484375 24.367188 -1.492188 26.046875 -0.859375 C 27.734375 -0.234375 29.375 0.144531 30.96875 0.28125 C 32.5625 0.425781 33.910156 0.5 35.015625 0.5 C 37.109375 0.5 39.269531 0.28125 41.5 -0.15625 C 43.726562 -0.601562 45.832031 -1.1875 47.8125 -1.90625 L 47.8125 -35.515625 C 47.8125 -40.960938 47.671875 -45.296875 47.390625 -48.515625 C 47.117188 -51.734375 46.445312 -54.054688 45.375 -55.484375 C 44.300781 -56.921875 42.582031 -57.640625 40.21875 -57.640625 L 40.21875 -58.46875 L 54.921875 -58.46875 L 54.921875 -22.953125 C 54.921875 -17.554688 55.054688 -13.234375 55.328125 -9.984375 C 55.597656 -6.742188 56.269531 -4.40625 57.34375 -2.96875 C 58.414062 -1.539062 60.140625 -0.828125 62.515625 -0.828125 L 62.515625 0 L 53.09375 0 C 50.84375 0 48.328125 0.132812 45.546875 0.40625 C 42.765625 0.6875 40.09375 0.960938 37.53125 1.234375 C 34.96875 1.515625 32.890625 1.65625 31.296875 1.65625 C 29.804688 1.65625 28.113281 1.554688 26.21875 1.359375 C 24.320312 1.171875 22.378906 0.757812 20.390625 0.125 C 18.410156 -0.507812 16.582031 -1.488281 14.90625 -2.8125 C 13.226562 -4.132812 11.863281 -5.921875 10.8125 -8.171875 C 9.769531 -10.429688 9.25 -13.296875 9.25 -16.765625 L 9.25 -35.515625 C 9.25 -40.960938 9.109375 -45.296875 8.828125 -48.515625 C 8.554688 -51.734375 7.882812 -54.054688 6.8125 -55.484375 C 5.738281 -56.921875 4.019531 -57.640625 1.65625 -57.640625 Z M 1.65625 -57.640625 "/></g></g></g><g fill="#ffffff" fill-opacity="1"><g transform="translate(154.382029, 210.792061)"><g><path d="M 24.78125 0 L 2.484375 0 L 2.484375 -0.828125 C 4.847656 -0.828125 6.566406 -1.539062 7.640625 -2.96875 C 8.710938 -4.40625 9.382812 -6.742188 9.65625 -9.984375 C 9.9375 -13.234375 10.078125 -17.554688 10.078125 -22.953125 L 10.078125 -35.515625 C 10.078125 -40.960938 9.9375 -45.296875 9.65625 -48.515625 C 9.382812 -51.734375 8.710938 -54.054688 7.640625 -55.484375 C 6.566406 -56.921875 4.847656 -57.640625 2.484375 -57.640625 L 2.484375 -58.46875 L 12.0625 -58.46875 C 16.789062 -58.46875 21.710938 -58.738281 26.828125 -59.28125 C 31.953125 -59.832031 36.800781 -60.109375 41.375 -60.109375 C 45.0625 -60.109375 48.113281 -59.226562 50.53125 -57.46875 C 52.957031 -55.707031 54.171875 -53.234375 54.171875 -50.046875 C 54.171875 -47.835938 53.578125 -45.945312 52.390625 -44.375 C 51.210938 -42.8125 49.4375 -42.03125 47.0625 -42.03125 C 45.90625 -42.03125 44.859375 -42.375 43.921875 -43.0625 C 42.992188 -43.75 42.53125 -44.671875 42.53125 -45.828125 C 43.6875 -45.878906 44.71875 -46.5 45.625 -47.6875 C 46.53125 -48.875 46.984375 -50.320312 46.984375 -52.03125 C 46.984375 -53.957031 46.253906 -55.59375 44.796875 -56.9375 C 43.335938 -58.28125 41.125 -58.953125 38.15625 -58.953125 C 36.882812 -58.953125 35.296875 -58.894531 33.390625 -58.78125 C 31.492188 -58.675781 29.523438 -58.515625 27.484375 -58.296875 C 25.453125 -58.078125 23.515625 -57.828125 21.671875 -57.546875 C 19.828125 -57.273438 18.328125 -56.945312 17.171875 -56.5625 L 17.171875 -22.953125 C 17.171875 -17.554688 17.304688 -13.234375 17.578125 -9.984375 C 17.859375 -6.742188 18.535156 -4.40625 19.609375 -2.96875 C 20.679688 -1.539062 22.40625 -0.828125 24.78125 -0.828125 Z M 24.78125 0 "/></g></g></g><g fill="#ffffff" fill-opacity="1"><g transform="translate(210.198051, 210.792061)"><g><path d="M 4.953125 -16.6875 C 4.953125 -20.8125 5.707031 -24.234375 7.21875 -26.953125 C 8.738281 -29.679688 10.734375 -31.898438 13.203125 -33.609375 C 15.679688 -35.316406 18.40625 -36.675781 21.375 -37.6875 C 24.351562 -38.707031 27.328125 -39.5625 30.296875 -40.25 C 33.273438 -40.945312 36.003906 -41.664062 38.484375 -42.40625 C 40.960938 -43.144531 42.957031 -44.09375 44.46875 -45.25 C 45.976562 -46.40625 46.734375 -47.945312 46.734375 -49.875 C 46.734375 -52.132812 45.988281 -53.953125 44.5 -55.328125 C 43.019531 -56.703125 41.175781 -57.707031 38.96875 -58.34375 C 36.769531 -58.976562 34.539062 -59.296875 32.28125 -59.296875 C 29.695312 -59.296875 27.222656 -58.976562 24.859375 -58.34375 C 22.492188 -57.707031 20.566406 -56.6875 19.078125 -55.28125 C 17.585938 -53.882812 16.84375 -52.03125 16.84375 -49.71875 C 16.84375 -48.175781 17.296875 -47.054688 18.203125 -46.359375 C 19.117188 -45.671875 19.769531 -45.519531 20.15625 -45.90625 C 20.59375 -44.695312 20.273438 -43.597656 19.203125 -42.609375 C 18.128906 -41.617188 16.90625 -41.125 15.53125 -41.125 C 13.757812 -41.125 12.320312 -41.785156 11.21875 -43.109375 C 10.125 -44.429688 9.578125 -45.972656 9.578125 -47.734375 C 9.578125 -50.484375 10.566406 -52.765625 12.546875 -54.578125 C 14.535156 -56.398438 17.25 -57.773438 20.6875 -58.703125 C 24.125 -59.640625 27.988281 -60.109375 32.28125 -60.109375 C 34.59375 -60.109375 37 -59.875 39.5 -59.40625 C 42.007812 -58.945312 44.335938 -58.257812 46.484375 -57.34375 C 48.640625 -56.4375 50.390625 -55.347656 51.734375 -54.078125 C 53.085938 -52.816406 53.765625 -51.363281 53.765625 -49.71875 C 53.765625 -48.0625 53.1875 -46.738281 52.03125 -45.75 C 50.875 -44.757812 49.300781 -43.972656 47.3125 -43.390625 C 45.332031 -42.816406 43.101562 -42.28125 40.625 -41.78125 C 38.144531 -41.289062 35.597656 -40.726562 32.984375 -40.09375 C 30.367188 -39.457031 27.820312 -38.585938 25.34375 -37.484375 C 22.875 -36.390625 20.644531 -34.957031 18.65625 -33.1875 C 16.675781 -31.425781 15.109375 -29.15625 13.953125 -26.375 C 12.796875 -23.601562 12.21875 -20.207031 12.21875 -16.1875 C 12.21875 -13.320312 12.78125 -10.742188 13.90625 -8.453125 C 15.039062 -6.171875 16.625 -4.367188 18.65625 -3.046875 C 20.695312 -1.734375 23.066406 -1.078125 25.765625 -1.078125 C 28.023438 -1.078125 30.320312 -1.679688 32.65625 -2.890625 C 35 -4.097656 37.1875 -6.023438 39.21875 -8.671875 C 41.257812 -11.316406 42.898438 -14.742188 44.140625 -18.953125 C 45.378906 -23.160156 46 -28.265625 46 -34.265625 C 46 -35.203125 45.914062 -36.066406 45.75 -36.859375 C 45.582031 -37.660156 45.195312 -38.144531 44.59375 -38.3125 C 44.59375 -38.59375 44.796875 -38.851562 45.203125 -39.09375 C 45.617188 -39.34375 46.160156 -39.46875 46.828125 -39.46875 C 48.859375 -39.46875 50.34375 -38.847656 51.28125 -37.609375 C 52.21875 -36.367188 52.835938 -34.769531 53.140625 -32.8125 C 53.441406 -30.863281 53.59375 -28.789062 53.59375 -26.59375 C 53.59375 -24.769531 53.59375 -23.238281 53.59375 -22 C 53.59375 -20.769531 53.601562 -19.585938 53.625 -18.453125 C 53.65625 -17.328125 53.671875 -16.0625 53.671875 -14.65625 C 53.671875 -13.25 53.671875 -11.445312 53.671875 -9.25 C 53.671875 -6.9375 54.039062 -5.171875 54.78125 -3.953125 C 55.53125 -2.742188 56.398438 -1.921875 57.390625 -1.484375 C 58.378906 -1.046875 59.234375 -0.828125 59.953125 -0.828125 L 59.953125 0 L 54.09375 0 C 51.882812 0 50.023438 -0.929688 48.515625 -2.796875 C 47.003906 -4.671875 46.25 -7.148438 46.25 -10.234375 L 46.25 -24.359375 C 45.53125 -20.835938 44.59375 -17.503906 43.4375 -14.359375 C 42.28125 -11.222656 40.832031 -8.441406 39.09375 -6.015625 C 37.363281 -3.597656 35.21875 -1.710938 32.65625 -0.359375 C 30.09375 0.984375 27 1.65625 23.375 1.65625 C 19.84375 1.65625 16.6875 0.867188 13.90625 -0.703125 C 11.132812 -2.273438 8.945312 -4.445312 7.34375 -7.21875 C 5.75 -10 4.953125 -13.15625 4.953125 -16.6875 Z M 4.953125 -16.6875 "/></g></g></g><g fill="#ffffff" fill-opacity="1"><g transform="translate(271.793809, 210.792061)"><g><path d="M 2.484375 0 L 2.484375 -0.828125 C 4.847656 -0.828125 6.566406 -1.539062 7.640625 -2.96875 C 8.710938 -4.40625 9.382812 -6.742188 9.65625 -9.984375 C 9.9375 -13.234375 10.078125 -17.554688 10.078125 -22.953125 L 10.078125 -59.625 C 10.078125 -65.070312 9.9375 -69.40625 9.65625 -72.625 C 9.382812 -75.84375 8.710938 -78.164062 7.640625 -79.59375 C 6.566406 -81.03125 4.847656 -81.75 2.484375 -81.75 L 2.484375 -82.578125 L 9.078125 -82.578125 C 13.429688 -82.578125 17.453125 -82.851562 21.140625 -83.40625 C 24.828125 -83.957031 28.488281 -84.234375 32.125 -84.234375 C 38.507812 -84.234375 44.039062 -83.078125 48.71875 -80.765625 C 53.394531 -78.453125 57.289062 -75.285156 60.40625 -71.265625 C 63.519531 -67.242188 65.832031 -62.660156 67.34375 -57.515625 C 68.851562 -52.367188 69.609375 -46.960938 69.609375 -41.296875 C 69.609375 -35.617188 68.851562 -30.207031 67.34375 -25.0625 C 65.832031 -19.914062 63.519531 -15.332031 60.40625 -11.3125 C 57.289062 -7.289062 53.394531 -4.125 48.71875 -1.8125 C 44.039062 0.5 38.507812 1.65625 32.125 1.65625 C 28.488281 1.65625 24.828125 1.378906 21.140625 0.828125 C 17.453125 0.273438 13.429688 0 9.078125 0 Z M 17.09375 -80.765625 L 17.09375 -1.8125 C 19.519531 -1.101562 21.941406 -0.539062 24.359375 -0.125 C 26.785156 0.289062 29.347656 0.5 32.046875 0.5 C 37.160156 0.5 41.613281 -0.597656 45.40625 -2.796875 C 49.207031 -5.003906 52.375 -8.046875 54.90625 -11.921875 C 57.445312 -15.804688 59.347656 -20.265625 60.609375 -25.296875 C 61.878906 -30.335938 62.515625 -35.671875 62.515625 -41.296875 C 62.515625 -46.910156 61.878906 -52.234375 60.609375 -57.265625 C 59.347656 -62.304688 57.445312 -66.765625 54.90625 -70.640625 C 52.375 -74.523438 49.207031 -77.566406 45.40625 -79.765625 C 41.613281 -81.972656 37.160156 -83.078125 32.046875 -83.078125 C 29.347656 -83.078125 26.785156 -82.882812 24.359375 -82.5 C 21.941406 -82.113281 19.519531 -81.535156 17.09375 -80.765625 Z M 17.09375 -80.765625 "/></g></g></g></svg>