<svg xmlns="http://www.w3.org/2000/svg" xmlns:xlink="http://www.w3.org/1999/xlink" width="500" zoomAndPan="magnify" viewBox="0 0 375 374.999991" height="500" preserveAspectRatio="xMidYMid meet" version="1.0"><defs><g/><clipPath id="b9d2262eab"><path d="M 20.257812 20.257812 L 354.683594 20.257812 L 354.683594 354.683594 L 20.257812 354.683594 Z M 20.257812 20.257812 " clip-rule="nonzero"/></clipPath><clipPath id="6c542d315b"><path d="M 187.472656 20.257812 C 95.121094 20.257812 20.257812 95.121094 20.257812 187.472656 C 20.257812 279.820312 95.121094 354.683594 187.472656 354.683594 C 279.820312 354.683594 354.683594 279.820312 354.683594 187.472656 C 354.683594 95.121094 279.820312 20.257812 187.472656 20.257812 Z M 187.472656 20.257812 " clip-rule="nonzero"/></clipPath></defs><g clip-path="url(#b9d2262eab)"><g clip-path="url(#6c542d315b)"><path stroke-linecap="butt" transform="matrix(3.805709, 0, 0, 3.805709, 20.258768, 20.258764)" fill="none" stroke-linejoin="miter" d="M 43.937645 -0.000250006 C 19.671059 -0.000250006 -0.000251188 19.67106 -0.000251188 43.937646 C -0.000251188 68.203206 19.671059 87.874516 43.937645 87.874516 C 68.203205 87.874516 87.874515 68.203206 87.874515 43.937646 C 87.874515 19.67106 68.203205 -0.000250006 43.937645 -0.000250006 Z M 43.937645 -0.000250006 " stroke="#ffffff" stroke-width="0.394145" stroke-opacity="1" stroke-miterlimit="4"/></g></g><g fill="#ffffff" fill-opacity="1"><g transform="translate(87.481216, 275.031301)"><g><path d="M 6.84375 -39.953125 C 6.84375 -49.398438 9.050781 -57.890625 13.46875 -65.421875 C 17.882812 -72.953125 23.554688 -79.800781 30.484375 -85.96875 C 37.410156 -92.132812 44.753906 -97.765625 52.515625 -102.859375 C 60.285156 -107.960938 67.628906 -112.679688 74.546875 -117.015625 C 81.472656 -121.359375 87.144531 -125.507812 91.5625 -129.46875 C 95.976562 -133.425781 98.1875 -137.382812 98.1875 -141.34375 C 98.1875 -143.476562 97.648438 -145.039062 96.578125 -146.03125 C 95.515625 -147.019531 94.222656 -147.515625 92.703125 -147.515625 C 89.960938 -147.515625 87.410156 -146.296875 85.046875 -143.859375 C 82.691406 -141.421875 80.375 -138.640625 78.09375 -135.515625 C 75.8125 -132.398438 73.335938 -129.625 70.671875 -127.1875 C 68.003906 -124.75 65.070312 -123.53125 61.875 -123.53125 C 58.675781 -123.53125 56.734375 -124.820312 56.046875 -127.40625 C 55.367188 -130 55.5625 -132.742188 56.625 -135.640625 C 60.125 -144.773438 63.320312 -153.257812 66.21875 -161.09375 C 69.113281 -168.9375 71.96875 -176.546875 74.78125 -183.921875 C 77.59375 -191.304688 80.484375 -198.957031 83.453125 -206.875 C 86.421875 -214.789062 89.734375 -223.46875 93.390625 -232.90625 L 95.671875 -232.90625 L 168.75 -39.953125 C 173.769531 -27.472656 178.488281 -18.070312 182.90625 -11.75 C 187.320312 -5.4375 193.03125 -2.28125 200.03125 -2.28125 L 200.03125 0 L 125.125 0 L 125.125 -2.28125 C 133.195312 -2.28125 139.328125 -3.34375 143.515625 -5.46875 C 147.703125 -7.601562 150.40625 -10.570312 151.625 -14.375 C 152.84375 -18.1875 152.992188 -22.601562 152.078125 -27.625 C 151.160156 -32.65625 149.640625 -38.0625 147.515625 -43.84375 L 119.203125 -118.515625 C 120.109375 -111.203125 120.5625 -102.066406 120.5625 -91.109375 C 120.5625 -72.691406 117.707031 -56.25 112 -41.78125 C 106.289062 -27.320312 98.070312 -15.984375 87.34375 -7.765625 C 76.613281 0.453125 63.632812 4.5625 48.40625 4.5625 C 39.582031 4.5625 32.085938 2.507812 25.921875 -1.59375 C 19.753906 -5.707031 15.03125 -11.148438 11.75 -17.921875 C 8.476562 -24.703125 6.84375 -32.046875 6.84375 -39.953125 Z M 26.265625 -44.296875 C 26.265625 -33.640625 29.457031 -24.65625 35.84375 -17.34375 C 42.238281 -10.039062 50.992188 -6.390625 62.109375 -6.390625 C 71.703125 -6.390625 80 -8.976562 87 -14.15625 C 94 -19.332031 99.820312 -26.101562 104.46875 -34.46875 C 109.113281 -42.84375 112.578125 -51.976562 114.859375 -61.875 C 117.140625 -71.769531 118.28125 -81.363281 118.28125 -90.65625 C 118.28125 -99.175781 118.015625 -106.785156 117.484375 -113.484375 C 116.953125 -120.179688 115.617188 -126.878906 113.484375 -133.578125 L 85.859375 -206.421875 L 59.59375 -136.546875 C 58.070312 -132.585938 57.65625 -129.804688 58.34375 -128.203125 C 59.03125 -126.609375 60.285156 -125.8125 62.109375 -125.8125 C 64.691406 -125.8125 67.203125 -127.03125 69.640625 -129.46875 C 72.078125 -131.90625 74.515625 -134.679688 76.953125 -137.796875 C 79.390625 -140.921875 81.9375 -143.703125 84.59375 -146.140625 C 87.257812 -148.578125 90.117188 -149.796875 93.171875 -149.796875 C 95.296875 -149.796875 97.082031 -149.070312 98.53125 -147.625 C 99.976562 -146.175781 100.703125 -143.929688 100.703125 -140.890625 C 100.703125 -135.867188 98.910156 -131.265625 95.328125 -127.078125 C 91.753906 -122.890625 87.148438 -118.816406 81.515625 -114.859375 C 75.878906 -110.898438 69.863281 -106.710938 63.46875 -102.296875 C 57.082031 -97.878906 51.070312 -92.96875 45.4375 -87.5625 C 39.800781 -82.164062 35.195312 -75.960938 31.625 -68.953125 C 28.050781 -61.953125 26.265625 -53.734375 26.265625 -44.296875 Z M 26.265625 -44.296875 "/></g></g></g></svg>