<svg xmlns="http://www.w3.org/2000/svg" xmlns:xlink="http://www.w3.org/1999/xlink" width="500" zoomAndPan="magnify" viewBox="0 0 375 374.999991" height="500" preserveAspectRatio="xMidYMid meet" version="1.0"><defs><g/><clipPath id="3b99770713"><path d="M 34.679688 34.679688 L 340.320312 34.679688 L 340.320312 340.320312 L 34.679688 340.320312 Z M 34.679688 34.679688 " clip-rule="nonzero"/></clipPath><clipPath id="3be24fba17"><path d="M 187.5 34.679688 C 103.101562 34.679688 34.679688 103.101562 34.679688 187.5 C 34.679688 271.898438 103.101562 340.320312 187.5 340.320312 C 271.898438 340.320312 340.320312 271.898438 340.320312 187.5 C 340.320312 103.101562 271.898438 34.679688 187.5 34.679688 Z M 187.5 34.679688 " clip-rule="nonzero"/></clipPath></defs><g clip-path="url(#3b99770713)"><g clip-path="url(#3be24fba17)"><path fill="#ffffff" d="M 34.679688 34.679688 L 340.320312 34.679688 L 340.320312 340.320312 L 34.679688 340.320312 Z M 34.679688 34.679688 " fill-opacity="1" fill-rule="nonzero"/></g></g><g fill="#000000" fill-opacity="1"><g transform="translate(90.295275, 294.616107)"><g><path d="M 7.046875 -41.140625 C 7.046875 -50.859375 9.316406 -59.597656 13.859375 -67.359375 C 18.410156 -75.117188 24.253906 -82.171875 31.390625 -88.515625 C 38.523438 -94.867188 46.085938 -100.671875 54.078125 -105.921875 C 62.066406 -111.171875 69.628906 -116.03125 76.765625 -120.5 C 83.898438 -124.96875 89.738281 -129.238281 94.28125 -133.3125 C 98.832031 -137.382812 101.109375 -141.460938 101.109375 -145.546875 C 101.109375 -147.734375 100.554688 -149.335938 99.453125 -150.359375 C 98.359375 -151.378906 97.023438 -151.890625 95.453125 -151.890625 C 92.640625 -151.890625 90.015625 -150.632812 87.578125 -148.125 C 85.148438 -145.613281 82.757812 -142.753906 80.40625 -139.546875 C 78.0625 -136.335938 75.515625 -133.476562 72.765625 -130.96875 C 70.023438 -128.457031 67.007812 -127.203125 63.71875 -127.203125 C 60.425781 -127.203125 58.425781 -128.535156 57.71875 -131.203125 C 57.019531 -133.867188 57.21875 -136.691406 58.3125 -139.671875 C 61.914062 -149.066406 65.207031 -157.800781 68.1875 -165.875 C 71.164062 -173.945312 74.101562 -181.785156 77 -189.390625 C 79.90625 -196.992188 82.882812 -204.867188 85.9375 -213.015625 C 88.988281 -221.171875 92.398438 -230.109375 96.171875 -239.828125 L 98.515625 -239.828125 L 173.75 -41.140625 C 178.925781 -28.285156 183.785156 -18.601562 188.328125 -12.09375 C 192.878906 -5.59375 198.757812 -2.34375 205.96875 -2.34375 L 205.96875 0 L 128.84375 0 L 128.84375 -2.34375 C 137.15625 -2.34375 143.460938 -3.441406 147.765625 -5.640625 C 152.078125 -7.835938 154.859375 -10.894531 156.109375 -14.8125 C 157.367188 -18.726562 157.53125 -23.269531 156.59375 -28.4375 C 155.65625 -33.613281 154.085938 -39.179688 151.890625 -45.140625 L 122.734375 -122.03125 C 123.671875 -114.507812 124.140625 -105.101562 124.140625 -93.8125 C 124.140625 -74.84375 121.203125 -57.910156 115.328125 -43.015625 C 109.453125 -28.128906 100.988281 -16.453125 89.9375 -7.984375 C 78.882812 0.472656 65.519531 4.703125 49.84375 4.703125 C 40.75 4.703125 33.03125 2.585938 26.6875 -1.640625 C 20.34375 -5.878906 15.484375 -11.484375 12.109375 -18.453125 C 8.734375 -25.429688 7.046875 -32.992188 7.046875 -41.140625 Z M 27.046875 -45.609375 C 27.046875 -34.640625 30.335938 -25.390625 36.921875 -17.859375 C 43.503906 -10.335938 52.515625 -6.578125 63.953125 -6.578125 C 73.828125 -6.578125 82.367188 -9.242188 89.578125 -14.578125 C 96.785156 -19.910156 102.78125 -26.882812 107.5625 -35.5 C 112.34375 -44.125 115.910156 -53.53125 118.265625 -63.71875 C 120.617188 -73.90625 121.796875 -83.78125 121.796875 -93.34375 C 121.796875 -102.125 121.519531 -109.960938 120.96875 -116.859375 C 120.425781 -123.753906 119.054688 -130.648438 116.859375 -137.546875 L 88.40625 -212.546875 L 61.375 -140.609375 C 59.800781 -136.523438 59.363281 -133.660156 60.0625 -132.015625 C 60.769531 -130.367188 62.066406 -129.546875 63.953125 -129.546875 C 66.617188 -129.546875 69.203125 -130.800781 71.703125 -133.3125 C 74.210938 -135.820312 76.722656 -138.679688 79.234375 -141.890625 C 81.742188 -145.109375 84.367188 -147.96875 87.109375 -150.46875 C 89.859375 -152.976562 92.800781 -154.234375 95.9375 -154.234375 C 98.125 -154.234375 99.960938 -153.488281 101.453125 -152 C 102.941406 -150.519531 103.6875 -148.210938 103.6875 -145.078125 C 103.6875 -139.898438 101.84375 -135.15625 98.15625 -130.84375 C 94.476562 -126.53125 89.738281 -122.335938 83.9375 -118.265625 C 78.132812 -114.191406 71.941406 -109.878906 65.359375 -105.328125 C 58.773438 -100.785156 52.582031 -95.734375 46.78125 -90.171875 C 40.988281 -84.609375 36.25 -78.21875 32.5625 -71 C 28.882812 -63.789062 27.046875 -55.328125 27.046875 -45.609375 Z M 27.046875 -45.609375 "/></g></g></g></svg>