<?xml version="1.0" encoding="UTF-8"?>
<svg id="Layer_2" data-name="Layer 2" xmlns="http://www.w3.org/2000/svg" viewBox="0 0 349.05 349.05">
  <defs>
    <style>
      .cls-1 {
        fill: #fff;
      }

      .cls-2 {
        fill: #36a852;
      }

      .cls-3 {
        fill: #fcc015;
      }

      .cls-4 {
        fill: none;
        stroke: #010101;
        stroke-miterlimit: 10;
        stroke-width: 4px;
      }

      .cls-5 {
        fill: #f9bc15;
      }

      .cls-6 {
        fill: #231f20;
      }
    </style>
  </defs>
  <g id="Layer_1-2" data-name="Layer 1">
    <rect class="cls-3" x="0" y="0" width="349.05" height="349.05" rx="77.09" ry="77.09"/>
    <circle class="cls-1" cx="174.53" cy="174.53" r="151.52"/>
    <circle class="cls-4" cx="174.53" cy="174.53" r="137.17"/>
    <g>
      <path class="cls-6" d="m98.98,198.23h-11.79c-1.79,0-3.31-.62-4.55-1.87s-1.87-2.74-1.87-4.49v-34.68c0-1.87.59-3.4,1.78-4.59,1.18-1.18,2.71-1.78,4.58-1.78h11.17c4.53,0,8.32,1.21,11.35,3.62,3.24,2.58,4.87,6.07,4.87,10.48,0,3.78-1.48,6.59-4.43,8.42,3.74,2,5.61,5.22,5.61,9.67,0,4.78-1.62,8.55-4.87,11.29-3.08,2.62-7.03,3.93-11.85,3.93Zm4.05-33.12c0-1.21-.48-2.15-1.43-2.84-.96-.69-2.12-1.03-3.49-1.03h-3.49c-.71,0-1.06.17-1.06.5v6.11c0,.33.37.5,1.12.5h3.49c1.21,0,2.27-.23,3.18-.69,1.12-.58,1.68-1.43,1.68-2.56Zm1.37,18.22c0-1.41-.6-2.47-1.81-3.18-1.04-.58-2.29-.87-3.74-.87h-4.68c-.42,0-.62.21-.62.62v6.55c0,.58.19.87.56.87.46,0,.91.02,1.37.06h1.75c4.78,0,7.17-1.35,7.17-4.05Z"/>
      <path class="cls-6" d="m171.31,174.53c0,6.53-2.43,12.23-7.3,17.09-4.82,4.82-10.5,7.24-17.03,7.24s-12.19-2.41-17.09-7.24c-4.82-4.91-7.24-10.6-7.24-17.09s2.41-12.2,7.24-17.03,10.56-7.3,17.09-7.3,12.2,2.43,17.03,7.3c4.87,4.78,7.3,10.46,7.3,17.03Zm-15.72,8.61c2.5-2.5,3.74-5.36,3.74-8.61s-1.25-6.11-3.74-8.61c-2.49-2.5-5.36-3.74-8.61-3.74s-6.11,1.25-8.61,3.74c-2.49,2.5-3.74,5.37-3.74,8.61s1.25,6.11,3.74,8.61c2.5,2.5,5.37,3.74,8.61,3.74s6.11-1.25,8.61-3.74Z"/>
      <path class="cls-5" d="m218.54,178.15v9.25c0,3.04-1.35,5.36-4.04,6.96-1.44.82-3.3,1.52-5.56,2.11-2.19.59-4.12.88-5.79.88-6.05,0-11.28-2.26-15.68-6.79-4.37-4.49-6.55-9.83-6.55-16.03s2.18-11.55,6.55-16.04c4.41-4.52,9.64-6.79,15.68-6.79,4.45,0,8.23,1.01,11.35,3.04,2.46,1.56,3.69,3.45,3.69,5.68,0,1.44-.54,2.68-1.61,3.72-1.07,1.03-2.33,1.55-3.77,1.55-.74,0-1.44-.14-2.11-.41l-3.1-1.4c-1.37-.62-2.85-.94-4.45-.94-3,0-5.6,1.17-7.78,3.51-2.15,2.26-3.22,4.95-3.22,8.08s1.07,5.83,3.22,8.13c2.18,2.3,4.78,3.45,7.78,3.45,1.44,0,2.87-.31,4.27-.94.55-.27.86-.45.94-.53.04-.04.06-.47.06-1.29v-5.21c0-1.4.5-2.6,1.49-3.6,1-.99,2.17-1.49,3.54-1.49s2.6.5,3.6,1.49c.99.99,1.49,2.19,1.49,3.6Z"/>
      <path class="cls-2" d="m268.28,174.53c0,6.13-2.28,11.47-6.85,16.03-4.53,4.53-9.85,6.79-15.98,6.79s-11.43-2.26-16.03-6.79c-4.53-4.6-6.79-9.95-6.79-16.03s2.26-11.45,6.79-15.98c4.56-4.56,9.91-6.85,16.03-6.85s11.45,2.28,15.98,6.85c4.56,4.49,6.85,9.81,6.85,15.98Zm-14.75,8.08c2.34-2.34,3.51-5.03,3.51-8.08s-1.17-5.74-3.51-8.08c-2.34-2.34-5.03-3.51-8.08-3.51s-5.74,1.17-8.08,3.51c-2.34,2.34-3.51,5.03-3.51,8.08s1.17,5.73,3.51,8.08c2.34,2.34,5.03,3.51,8.08,3.51s5.74-1.17,8.08-3.51Z"/>
    </g>
  </g>
</svg>